<?xml version="1.0" encoding="utf-8"?>
<!-- Generator: Adobe Illustrator 27.0.0, SVG Export Plug-In . SVG Version: 6.00 Build 0)  -->
<svg version="1.1" id="Layer_1" xmlns="http://www.w3.org/2000/svg" xmlns:xlink="http://www.w3.org/1999/xlink" x="0px" y="0px"
	 viewBox="0 0 15 15" style="enable-background:new 0 0 15 15;" xml:space="preserve">
<style type="text/css">
	.st0{fill:#FFFFFF;}
</style>
<g>
	<g>
		<path class="st0" d="M7.9,14.2c-1,0-1.9-0.2-2.8-0.5c-0.9-0.3-1.6-0.8-2.2-1.4S1.8,11,1.4,10.2S0.9,8.4,0.9,7.4
			c0-1,0.2-1.9,0.5-2.7c0.4-0.8,0.8-1.5,1.5-2.2s1.4-1.1,2.2-1.4C6,0.8,6.9,0.6,8,0.6c1,0,2,0.2,2.8,0.5C11.7,1.5,12.4,2,13,2.7
			l-1.2,1.2c-0.5-0.5-1.1-0.9-1.7-1.2C9.4,2.5,8.8,2.3,8,2.3C7.3,2.3,6.6,2.5,6,2.7S4.8,3.3,4.3,3.8s-0.8,1-1.1,1.6
			C2.9,6,2.8,6.7,2.8,7.4c0,0.7,0.1,1.4,0.4,2c0.3,0.6,0.6,1.2,1.1,1.6s1,0.8,1.7,1.1c0.6,0.3,1.3,0.4,2.1,0.4c0.7,0,1.4-0.1,2-0.4
			c0.6-0.3,1.2-0.7,1.7-1.2l1.2,1.2c-0.6,0.7-1.3,1.2-2.2,1.6C9.9,14.1,9,14.2,7.9,14.2z"/>
	</g>
</g>
<g>
	<g>
	</g>
</g>
<g>
	<g>
	</g>
</g>
</svg>
