<svg width="37" height="36" viewBox="0 0 37 36" fill="none" xmlns="http://www.w3.org/2000/svg">
<g clip-path="url(#clip0_145_1015)">
<path d="M7.63232 27.3933V28.4083" stroke="white" stroke-miterlimit="10" stroke-linecap="round"/>
<path d="M7.63232 30.6512V32.8841" stroke="white" stroke-miterlimit="10" stroke-linecap="round"/>
<path d="M7.63232 34.0107V35.0257" stroke="white" stroke-miterlimit="10" stroke-linecap="round"/>
<path d="M10.3524 26.4494V27.4643" stroke="white" stroke-miterlimit="10" stroke-linecap="round"/>
<path d="M10.3524 29.6972V31.9402" stroke="white" stroke-miterlimit="10" stroke-linecap="round"/>
<path d="M10.3524 33.0567V34.0716" stroke="white" stroke-miterlimit="10" stroke-linecap="round"/>
<path d="M12.8594 27.8602V28.8751" stroke="white" stroke-miterlimit="10" stroke-linecap="round"/>
<path d="M12.8594 31.1181V33.3611" stroke="white" stroke-miterlimit="10" stroke-linecap="round"/>
<path d="M12.8594 34.4776V35.4925" stroke="white" stroke-miterlimit="10" stroke-linecap="round"/>
<path d="M15.5895 26.9163V27.9312" stroke="white" stroke-miterlimit="10" stroke-linecap="round"/>
<path d="M15.5895 30.1742V32.4172" stroke="white" stroke-miterlimit="10" stroke-linecap="round"/>
<path d="M15.5895 33.5337V34.5486" stroke="white" stroke-miterlimit="10" stroke-linecap="round"/>
<path d="M18.6343 27.8602V28.8751" stroke="white" stroke-miterlimit="10" stroke-linecap="round"/>
<path d="M18.6343 31.1181V33.3611" stroke="white" stroke-miterlimit="10" stroke-linecap="round"/>
<path d="M18.6343 34.4776V35.4925" stroke="white" stroke-miterlimit="10" stroke-linecap="round"/>
<path d="M21.3544 26.9163V27.9312" stroke="white" stroke-miterlimit="10" stroke-linecap="round"/>
<path d="M21.3544 30.1742V32.4172" stroke="white" stroke-miterlimit="10" stroke-linecap="round"/>
<path d="M21.3544 33.5337V34.5486" stroke="white" stroke-miterlimit="10" stroke-linecap="round"/>
<path d="M24.2571 27.8602V28.8751" stroke="white" stroke-miterlimit="10" stroke-linecap="round"/>
<path d="M24.2571 31.1181V33.3611" stroke="white" stroke-miterlimit="10" stroke-linecap="round"/>
<path d="M24.2571 34.4776V35.4925" stroke="white" stroke-miterlimit="10" stroke-linecap="round"/>
<path d="M26.9873 26.9163V27.9312" stroke="white" stroke-miterlimit="10" stroke-linecap="round"/>
<path d="M26.9873 30.1742V32.4172" stroke="white" stroke-miterlimit="10" stroke-linecap="round"/>
<path d="M26.9873 33.5337V34.5486" stroke="white" stroke-miterlimit="10" stroke-linecap="round"/>
<path d="M23.2523 13.4175C22.8057 13.4175 22.3795 13.4581 21.9633 13.5393C21.192 9.99719 18.0558 7.35834 14.2904 7.35834C9.93628 7.35834 6.41443 10.8802 6.41443 15.2343C2.87229 15.2343 0 18.0964 0 21.6487C0 25.201 2.87229 28.0632 6.41443 28.0632H29.6668C32.0417 28.0632 33.9803 26.1246 33.9803 23.7395C33.9803 21.3544 32.0417 19.426 29.6668 19.426H29.6566C29.4536 16.0665 26.6625 13.4175 23.2625 13.4175H23.2523Z" fill="white"/>
<path d="M22.278 0C20.7556 2.28362 20.0959 5.15591 20.6744 8.05864C20.7353 8.35297 20.8063 8.63716 20.8774 8.92134C19.8421 7.8252 18.4922 7.0234 16.98 6.64787C17.7513 3.82633 19.6493 1.39047 22.278 0Z" fill="white"/>
<path d="M36.2436 15.4373C35.1982 17.0003 33.7468 18.2892 32.0011 19.1316C31.6966 19.0606 31.382 19.0302 31.0572 19.0302H31.0369C30.9862 18.1877 30.7832 17.3961 30.4482 16.6755C31.382 16.7364 32.3259 16.6856 33.2799 16.4928C34.3456 16.2898 35.3403 15.9244 36.2436 15.4373Z" fill="white"/>
<path d="M32.3259 6.65802L32.6913 7.39893L33.5236 7.52072L32.9247 8.10939L33.0668 8.93149L32.3259 8.54581L31.585 8.93149L31.7271 8.10939L31.1283 7.52072L31.9605 7.39893L32.3259 6.65802Z" fill="white"/>
<path d="M25.9419 4.66876L26.3174 5.41982L27.1497 5.54161L26.5508 6.12013L26.6828 6.95238L25.9419 6.55655L25.2111 6.95238L25.3431 6.12013L24.7544 5.54161L25.5765 5.41982L25.9419 4.66876Z" fill="white"/>
<path d="M29.7987 11.6718L30.1742 12.4229L31.0065 12.5447L30.4077 13.1333L30.5396 13.9554L29.7987 13.5698L29.0679 13.9554L29.1999 13.1333L28.6112 12.5447L29.4333 12.4229L29.7987 11.6718Z" fill="white"/>
</g>
<defs>
<clipPath id="clip0_145_1015">
<rect width="36.2436" height="36" fill="white"/>
</clipPath>
</defs>
</svg>
