<svg width="15" height="16" viewBox="0 0 15 16" fill="none" xmlns="http://www.w3.org/2000/svg">
<path fill-rule="evenodd" clip-rule="evenodd" d="M14.625 3.75H0.375V6.125C1.24945 6.125 1.95833 6.83388 1.95833 7.70833V10.0833C1.95833 12.4689 1.95833 13.6616 2.59834 14.4771C2.74667 14.6662 2.91718 14.8367 3.1062 14.985C3.92169 15.625 5.11446 15.625 7.5 15.625C9.88554 15.625 11.0783 15.625 11.8938 14.985C12.0828 14.8367 12.2533 14.6662 12.4017 14.4771C13.0417 13.6616 13.0417 12.4689 13.0417 10.0833V7.70833C13.0417 6.83388 13.7505 6.125 14.625 6.125V3.75ZM6.52083 7.70833C6.52083 7.15605 6.07312 6.70833 5.52083 6.70833C4.96855 6.70833 4.52083 7.15605 4.52083 7.70833V11.6667C4.52083 12.219 4.96855 12.6667 5.52083 12.6667C6.07312 12.6667 6.52083 12.219 6.52083 11.6667V7.70833ZM10.4792 7.70833C10.4792 7.15605 10.0315 6.70833 9.47917 6.70833C8.92688 6.70833 8.47917 7.15605 8.47917 7.70833V11.6667C8.47917 12.219 8.92688 12.6667 9.47917 12.6667C10.0315 12.6667 10.4792 12.219 10.4792 11.6667V7.70833Z" fill="white"/>
<path d="M5.97066 1.66838C6.06087 1.58422 6.25965 1.50984 6.53617 1.4568C6.81269 1.40375 7.15149 1.375 7.50004 1.375C7.84859 1.375 8.18739 1.40375 8.46391 1.4568C8.74043 1.50984 8.93921 1.58422 9.02942 1.66838" stroke="white" stroke-width="2" stroke-linecap="round"/>
</svg>
