<?xml version="1.0" encoding="UTF-8"?>
<svg id="Layer_1" data-name="Layer 1" xmlns="http://www.w3.org/2000/svg" viewBox="0 0 30.76 35.26">
  <defs>
    <style>
      .cls-1 {
        fill: #FFFFFF;
      }
    </style>
  </defs>
  <path class="cls-1" d="M30.76,29.98h0c-1.65,.51-3.41,.78-5.23,.78-9.95,0-18.02-8.06-18.02-18.01C7.51,7.78,9.53,3.27,12.79,.01h.01s-.01,0-.01,0C5.39,2.24,0,9.12,0,17.25c0,9.95,8.07,18.01,18.02,18.01,4.97,0,9.48-2.02,12.74-5.27h0Z"/>
  <polygon class="cls-1" points="27.5 12.31 28.27 13.86 29.99 14.11 28.75 15.33 29.04 17.04 27.5 16.23 25.97 17.04 26.26 15.33 25.02 14.11 26.74 13.86 27.5 12.31"/>
  <polygon class="cls-1" points="14.27 8.19 15.04 9.75 16.76 10 15.52 11.21 15.81 12.92 14.27 12.11 12.74 12.92 13.03 11.21 11.79 10 13.5 9.75 14.27 8.19"/>
  <polygon class="cls-1" points="22.27 22.73 23.04 24.28 24.76 24.53 23.52 25.75 23.81 27.46 22.27 26.65 20.74 27.46 21.03 25.75 19.79 24.53 21.51 24.28 22.27 22.73"/>
</svg>