<?xml version="1.0" encoding="utf-8"?>
<!-- Generator: Adobe Illustrator 27.0.0, SVG Export Plug-In . SVG Version: 6.00 Build 0)  -->
<svg version="1.1" id="Layer_1" xmlns="http://www.w3.org/2000/svg" xmlns:xlink="http://www.w3.org/1999/xlink" x="0px" y="0px"
	 viewBox="0 0 33.7 27" style="enable-background:new 0 0 33.7 27;" xml:space="preserve">
<style type="text/css">
	.st0{fill:#FFFFFF;}
	.st1{fill:#FFFFFF;stroke:#FFFFFF;stroke-linecap:round;stroke-miterlimit:10;}
</style>
<path class="st0" d="M29.2,11c0,1.2-0.3,2.3-0.9,3.2c-1.1-1.5-2.9-2.4-4.9-2.4c-0.4,0-0.9,0-1.3,0.1c-0.5-2.4-2.1-4.4-4.3-5.4
	c1.2-1.3,2.9-2.2,4.8-2.2C26.3,4.4,29.2,7.4,29.2,11z"/>
<path class="st0" d="M22.9,12.6c-0.4,0-0.9,0-1.3,0.1c-0.8-3.5-3.9-6.1-7.6-6.1c-4.3,0-7.8,3.5-7.8,7.8c-3.5,0-6.3,2.8-6.3,6.3
	S2.8,27,6.3,27h22.9c2.3,0,4.3-1.9,4.3-4.3s-1.9-4.2-4.2-4.2h0C29,15.2,26.3,12.6,22.9,12.6L22.9,12.6z"/>
<line class="st1" x1="22.7" y1="0.5" x2="22.7" y2="3.6"/>
<line class="st1" x1="18.6" y1="1.3" x2="19.8" y2="4.2"/>
<line class="st1" x1="15.2" y1="3.6" x2="17.5" y2="5.8"/>
<line class="st1" x1="32.4" y1="15" x2="29.5" y2="13.8"/>
<line class="st1" x1="33.2" y1="11" x2="30" y2="11"/>
<line class="st1" x1="32.4" y1="7" x2="29.5" y2="8.2"/>
<line class="st1" x1="30.1" y1="3.6" x2="27.9" y2="5.8"/>
<line class="st1" x1="26.7" y1="1.3" x2="25.5" y2="4.2"/>
</svg>
