<?xml version="1.0" encoding="UTF-8"?>
<svg id="Layer_1" data-name="Layer 1" xmlns="http://www.w3.org/2000/svg" viewBox="0 0 35.7 27.66">
  <defs>
    <style>
      .cls-1 {
        fill: #FFFFFF;
      }
    </style>
  </defs>
  <path class="cls-1" d="M22.9,13.22c-.44,0-.86,.04-1.27,.12-.76-3.49-3.85-6.09-7.56-6.09-4.29,0-7.76,3.47-7.76,7.76-3.49,0-6.32,2.82-6.32,6.32s2.83,6.32,6.32,6.32H29.22c2.34,0,4.25-1.91,4.25-4.26s-1.91-4.25-4.25-4.25h-.01c-.2-3.31-2.95-5.92-6.3-5.92Z"/>
  <path class="cls-1" d="M21.94,0c-1.5,2.25-2.15,5.08-1.58,7.94,.06,.29,.13,.57,.2,.85-1.02-1.08-2.35-1.87-3.84-2.24,.76-2.78,2.63-5.18,5.22-6.55Z"/>
  <path class="cls-1" d="M35.7,15.21c-1.03,1.54-2.46,2.81-4.18,3.64-.3-.07-.61-.1-.93-.1h-.02c-.05-.83-.25-1.61-.58-2.32,.92,.06,1.85,.01,2.79-.18,1.05-.2,2.03-.56,2.92-1.04Z"/>
  <polygon class="cls-1" points="31.84 6.56 32.2 7.29 33.02 7.41 32.43 7.99 32.57 8.8 31.84 8.42 31.11 8.8 31.25 7.99 30.66 7.41 31.48 7.29 31.84 6.56"/>
  <polygon class="cls-1" points="25.55 4.6 25.92 5.34 26.74 5.46 26.15 6.03 26.28 6.85 25.55 6.46 24.83 6.85 24.96 6.03 24.38 5.46 25.19 5.34 25.55 4.6"/>
  <polygon class="cls-1" points="29.35 11.5 29.72 12.24 30.54 12.36 29.95 12.94 30.08 13.75 29.35 13.37 28.63 13.75 28.76 12.94 28.18 12.36 28.99 12.24 29.35 11.5"/>
</svg>