<?xml version="1.0" encoding="UTF-8"?>
<svg id="Layer_1" data-name="Layer 1" xmlns="http://www.w3.org/2000/svg" viewBox="0 0 41.89 27.2">
  <defs>
    <style>
      .cls-1 {
        fill: #FFFFFF;
      }
    </style>
  </defs>
  <path class="cls-1" d="M25.6,11.07c-.49,0-.96,.05-1.42,.14-.85-3.9-4.31-6.8-8.45-6.8-4.79,0-8.67,3.88-8.67,8.67-3.9,0-7.06,3.15-7.06,7.06s3.17,7.06,7.06,7.06h25.6c2.62,0,4.75-2.13,4.75-4.76s-2.13-4.75-4.75-4.75h-.02c-.23-3.7-3.3-6.62-7.05-6.62Z"/>
  <path class="cls-1" d="M41.89,17.5c0,1.81-1.05,3.39-2.57,4.14-.1-2.72-2.34-4.89-5.06-4.89h-.02c-.24-3.96-3.53-7.08-7.54-7.08-.52,0-1.03,.05-1.51,.15-.91-4.17-4.62-7.28-9.04-7.28-.48,0-.94,.04-1.4,.11,1.53-1.63,3.71-2.65,6.12-2.65,4.02,0,7.36,2.82,8.2,6.6,.44-.09,.89-.13,1.37-.13,3.63,0,6.62,2.83,6.84,6.42h0c2.54,0,4.61,2.07,4.61,4.61Z"/>
</svg>