<?xml version="1.0" encoding="UTF-8"?>
<svg id="Layer_1" data-name="Layer 1" xmlns="http://www.w3.org/2000/svg" viewBox="0 0 37.46 32.15">
  <defs>
    <style>
      .cls-1 {
        fill: #FFFFFF;
      }

      .cls-2 {
        stroke-dasharray: 0 0 1.1 2.21;
      }

      .cls-2, .cls-3 {
        fill: none;
        stroke: #FFFFFF;
        stroke-linecap: round;
        stroke-miterlimit: 10;
      }
    </style>
  </defs>
  <g>
    <line class="cls-3" x1="7.52" y1="23.66" x2="7.52" y2="24.66"/>
    <line class="cls-2" x1="7.52" y1="26.87" x2="7.52" y2="29.08"/>
    <line class="cls-3" x1="7.52" y1="30.18" x2="7.52" y2="31.18"/>
  </g>
  <g>
    <line class="cls-3" x1="10.2" y1="22.73" x2="10.2" y2="23.73"/>
    <line class="cls-2" x1="10.2" y1="25.94" x2="10.2" y2="28.15"/>
    <line class="cls-3" x1="10.2" y1="29.25" x2="10.2" y2="30.25"/>
  </g>
  <g>
    <line class="cls-3" x1="12.67" y1="24.13" x2="12.67" y2="25.13"/>
    <line class="cls-2" x1="12.67" y1="27.34" x2="12.67" y2="29.54"/>
    <line class="cls-3" x1="12.67" y1="30.65" x2="12.67" y2="31.65"/>
  </g>
  <g>
    <line class="cls-3" x1="15.36" y1="23.2" x2="15.36" y2="24.2"/>
    <line class="cls-2" x1="15.36" y1="26.41" x2="15.36" y2="28.61"/>
    <line class="cls-3" x1="15.36" y1="29.72" x2="15.36" y2="30.72"/>
  </g>
  <g>
    <line class="cls-3" x1="18.36" y1="24.13" x2="18.36" y2="25.13"/>
    <line class="cls-2" x1="18.36" y1="27.34" x2="18.36" y2="29.54"/>
    <line class="cls-3" x1="18.36" y1="30.65" x2="18.36" y2="31.65"/>
  </g>
  <g>
    <line class="cls-3" x1="21.04" y1="23.2" x2="21.04" y2="24.2"/>
    <line class="cls-2" x1="21.04" y1="26.41" x2="21.04" y2="28.61"/>
    <line class="cls-3" x1="21.04" y1="29.72" x2="21.04" y2="30.72"/>
  </g>
  <g>
    <line class="cls-3" x1="23.9" y1="24.13" x2="23.9" y2="25.13"/>
    <line class="cls-2" x1="23.9" y1="27.34" x2="23.9" y2="29.54"/>
    <line class="cls-3" x1="23.9" y1="30.65" x2="23.9" y2="31.65"/>
  </g>
  <g>
    <line class="cls-3" x1="26.59" y1="23.2" x2="26.59" y2="24.2"/>
    <line class="cls-2" x1="26.59" y1="26.41" x2="26.59" y2="28.61"/>
    <line class="cls-3" x1="26.59" y1="29.72" x2="26.59" y2="30.72"/>
  </g>
  <path class="cls-1" d="M22.9,9.9c-.44,0-.86,.04-1.27,.13-.76-3.49-3.85-6.08-7.56-6.08-4.28,0-7.75,3.47-7.75,7.75-3.49,0-6.31,2.82-6.31,6.31s2.84,6.31,6.31,6.31H29.21c2.34,0,4.25-1.9,4.25-4.26s-1.91-4.25-4.25-4.25h-.02c-.21-3.31-2.95-5.92-6.31-5.92h0Z"/>
  <path class="cls-1" d="M37.46,15.65c0,1.62-.94,3.03-2.3,3.7-.09-2.43-2.09-4.37-4.53-4.37h-.02c-.21-3.54-3.16-6.33-6.74-6.33-.47,0-.92,.04-1.35,.13-.81-3.73-4.13-6.51-8.09-6.51-.43,0-.84,.04-1.25,.1,1.37-1.46,3.32-2.37,5.47-2.37,3.6,0,6.58,2.52,7.33,5.9,.39-.08,.8-.12,1.23-.12,3.25,0,5.92,2.53,6.12,5.74h0c2.27,0,4.12,1.85,4.12,4.12Z"/>
</svg>