<?xml version="1.0" encoding="UTF-8"?>
<svg id="Layer_1" data-name="Layer 1" xmlns="http://www.w3.org/2000/svg" viewBox="0 0 33.67 34.95">
  <defs>
    <style>
      .cls-1 {
        fill: #FFFFFF;
      }

      .cls-2 {
        stroke-dasharray: 0 0 1.1 2.21;
      }

      .cls-2, .cls-3, .cls-4 {
        fill: none;
        stroke-linecap: round;
        stroke-miterlimit: 10;
      }

      .cls-2, .cls-4 {
        stroke: #FFFFFF;
      }

      .cls-3 {
        stroke: #FFFFFF;
      }
    </style>
  </defs>
  <path class="cls-1" d="M29.23,11c0,1.18-.31,2.29-.87,3.24-1.14-1.46-2.93-2.39-4.93-2.39-.44,0-.86,.04-1.27,.12-.52-2.4-2.15-4.38-4.32-5.38,1.18-1.32,2.91-2.15,4.83-2.15,3.62,0,6.56,2.94,6.56,6.56Z"/>
  <path class="cls-1" d="M22.91,12.61c-.44,0-.86,.04-1.27,.12-.76-3.49-3.85-6.09-7.56-6.09-4.29,0-7.76,3.47-7.76,7.76-3.49,0-6.32,2.82-6.32,6.32s2.83,6.32,6.32,6.32H29.23c2.34,0,4.25-1.91,4.25-4.26s-1.91-4.25-4.25-4.25h-.01c-.2-3.31-2.95-5.92-6.3-5.92h-.01Z"/>
  <line class="cls-3" x1="22.67" y1=".5" x2="22.67" y2="3.63"/>
  <line class="cls-3" x1="18.65" y1="1.3" x2="19.85" y2="4.19"/>
  <line class="cls-3" x1="15.24" y1="3.57" x2="17.46" y2="5.79"/>
  <line class="cls-3" x1="32.37" y1="15.02" x2="29.48" y2="13.82"/>
  <line class="cls-3" x1="33.17" y1="11" x2="30.04" y2="11"/>
  <line class="cls-3" x1="32.37" y1="6.98" x2="29.48" y2="8.18"/>
  <line class="cls-3" x1="30.1" y1="3.57" x2="27.88" y2="5.79"/>
  <line class="cls-3" x1="26.69" y1="1.3" x2="25.49" y2="4.19"/>
  <g>
    <line class="cls-4" x1="7.4" y1="26.46" x2="7.4" y2="27.46"/>
    <line class="cls-2" x1="7.4" y1="29.67" x2="7.4" y2="31.88"/>
    <line class="cls-4" x1="7.4" y1="32.98" x2="7.4" y2="33.98"/>
  </g>
  <g>
    <line class="cls-4" x1="10.08" y1="25.53" x2="10.08" y2="26.53"/>
    <line class="cls-2" x1="10.08" y1="28.74" x2="10.08" y2="30.94"/>
    <line class="cls-4" x1="10.08" y1="32.05" x2="10.08" y2="33.05"/>
  </g>
  <g>
    <line class="cls-4" x1="12.56" y1="26.93" x2="12.56" y2="27.93"/>
    <line class="cls-2" x1="12.56" y1="30.13" x2="12.56" y2="32.34"/>
    <line class="cls-4" x1="12.56" y1="33.45" x2="12.56" y2="34.45"/>
  </g>
  <g>
    <line class="cls-4" x1="15.24" y1="26" x2="15.24" y2="27"/>
    <line class="cls-2" x1="15.24" y1="29.2" x2="15.24" y2="31.41"/>
    <line class="cls-4" x1="15.24" y1="32.51" x2="15.24" y2="33.51"/>
  </g>
  <g>
    <line class="cls-4" x1="18.25" y1="26.93" x2="18.25" y2="27.93"/>
    <line class="cls-2" x1="18.25" y1="30.13" x2="18.25" y2="32.34"/>
    <line class="cls-4" x1="18.25" y1="33.45" x2="18.25" y2="34.45"/>
  </g>
  <g>
    <line class="cls-4" x1="20.93" y1="26" x2="20.93" y2="27"/>
    <line class="cls-2" x1="20.93" y1="29.2" x2="20.93" y2="31.41"/>
    <line class="cls-4" x1="20.93" y1="32.51" x2="20.93" y2="33.51"/>
  </g>
  <g>
    <line class="cls-4" x1="23.79" y1="26.93" x2="23.79" y2="27.93"/>
    <line class="cls-2" x1="23.79" y1="30.13" x2="23.79" y2="32.34"/>
    <line class="cls-4" x1="23.79" y1="33.45" x2="23.79" y2="34.45"/>
  </g>
  <g>
    <line class="cls-4" x1="26.47" y1="26" x2="26.47" y2="27"/>
    <line class="cls-2" x1="26.47" y1="29.2" x2="26.47" y2="31.41"/>
    <line class="cls-4" x1="26.47" y1="32.51" x2="26.47" y2="33.51"/>
  </g>
</svg>