<?xml version="1.0" encoding="UTF-8"?>
<svg id="Layer_1" data-name="Layer 1" xmlns="http://www.w3.org/2000/svg" viewBox="0 0 37.45 32.15">
  <defs>
    <style>
      .cls-1 {
        fill: #FFFFFF;
      }

      .cls-2, .cls-3 {
        fill: none;
        stroke: #FFFFFF;
        stroke-linecap: round;
        stroke-miterlimit: 10;
      }

      .cls-3 {
        stroke-dasharray: 0 0 0 0 0 0 1.1 2.21;
      }
    </style>
  </defs>
  <g>
    <line class="cls-2" x1="7.51" y1="23.66" x2="7.51" y2="24.66"/>
    <line class="cls-3" x1="7.51" y1="26.87" x2="7.51" y2="29.08"/>
    <line class="cls-2" x1="7.51" y1="30.18" x2="7.51" y2="31.18"/>
  </g>
  <g>
    <line class="cls-2" x1="10.19" y1="23.11" x2="10.19" y2="24.11"/>
    <line class="cls-3" x1="10.19" y1="26.32" x2="10.19" y2="28.53"/>
    <line class="cls-2" x1="10.19" y1="29.63" x2="10.19" y2="30.63"/>
  </g>
  <g>
    <line class="cls-2" x1="12.66" y1="24.13" x2="12.66" y2="25.13"/>
    <line class="cls-3" x1="12.66" y1="27.34" x2="12.66" y2="29.54"/>
    <line class="cls-2" x1="12.66" y1="30.65" x2="12.66" y2="31.65"/>
  </g>
  <g>
    <line class="cls-2" x1="15.35" y1="23.2" x2="15.35" y2="24.2"/>
    <line class="cls-3" x1="15.35" y1="26.41" x2="15.35" y2="28.61"/>
    <line class="cls-2" x1="15.35" y1="29.72" x2="15.35" y2="30.72"/>
  </g>
  <g>
    <line class="cls-2" x1="18.35" y1="24.13" x2="18.35" y2="25.13"/>
    <line class="cls-3" x1="18.35" y1="27.34" x2="18.35" y2="29.54"/>
    <line class="cls-2" x1="18.35" y1="30.65" x2="18.35" y2="31.65"/>
  </g>
  <g>
    <line class="cls-2" x1="21.03" y1="23.2" x2="21.03" y2="24.2"/>
    <line class="cls-3" x1="21.03" y1="26.41" x2="21.03" y2="28.61"/>
    <line class="cls-2" x1="21.03" y1="29.72" x2="21.03" y2="30.72"/>
  </g>
  <g>
    <line class="cls-2" x1="23.89" y1="24.13" x2="23.89" y2="25.13"/>
    <line class="cls-3" x1="23.89" y1="27.34" x2="23.89" y2="29.54"/>
    <line class="cls-2" x1="23.89" y1="30.65" x2="23.89" y2="31.65"/>
  </g>
  <g>
    <line class="cls-2" x1="26.58" y1="23.2" x2="26.58" y2="24.2"/>
    <line class="cls-3" x1="26.58" y1="26.41" x2="26.58" y2="28.61"/>
    <line class="cls-2" x1="26.58" y1="29.72" x2="26.58" y2="30.72"/>
  </g>
  <path class="cls-1" d="M33.45,20.06c0,2.36-1.91,4.26-4.25,4.26H6.31c-3.47,0-6.31-2.82-6.31-6.31s2.82-6.31,6.31-6.31c0-4.28,3.47-7.75,7.75-7.75,3.7,0,6.79,2.58,7.55,6.06-.42,.25-1.06,.64-1.69,1.02-.94,.58-2.28,1.4-2.98,1.83-.7,.43-1.46,.89-1.7,1.03-.23,.14-.42,.26-.42,.26,.01,.01,.39,.13,1.41,.42,.39,.11,.86,.24,1.04,.3,.18,.05,.43,.12,.55,.16,.13,.03,.23,.06,.23,.07,0,0-2.59,1.54-4.43,2.64-1.98,1.17-2.06,1.22-2.02,1.23,.02,.01,.39,.11,.81,.22,.42,.12,.89,.24,1.05,.29l.29,.08-1.67,1.11c-.91,.62-1.95,1.31-2.31,1.55-.38,.25-.56,.38-.62,.45,.21-.05,1.96-.53,4.07-1.09,2.24-.6,4.5-1.21,5.02-1.35,.52-.14,.94-.26,.94-.27s-.16-.05-.39-.1c-.73-.17-2.85-.68-2.85-.69,0,0,1.79-.82,3.98-1.82l3.98-1.82-1.8-.46-1.8-.45,.5-.28c.28-.15,1.91-1.05,3.63-2.01,.85-.46,1.62-.89,2.19-1.21,1.46,1.07,2.44,2.76,2.56,4.69h.02c2.34,0,4.25,1.89,4.25,4.25Z"/>
  <path class="cls-1" d="M37.45,15.65c0,1.62-.94,3.03-2.3,3.7-.09-2.43-2.09-4.37-4.53-4.37h-.02c-.21-3.54-3.16-6.33-6.74-6.33-.47,0-.92,.04-1.35,.13-.81-3.73-4.13-6.51-8.09-6.51-.43,0-.84,.04-1.25,.1,1.37-1.46,3.32-2.37,5.47-2.37,3.6,0,6.58,2.52,7.33,5.9,.39-.08,.8-.12,1.23-.12,3.25,0,5.92,2.53,6.12,5.74h0c2.27,0,4.12,1.85,4.12,4.12h.01Z"/>
</svg>