<?xml version="1.0" encoding="utf-8"?>
<!-- Generator: Adobe Illustrator 27.0.0, SVG Export Plug-In . SVG Version: 6.00 Build 0)  -->
<svg version="1.1" id="Layer_1" xmlns="http://www.w3.org/2000/svg" xmlns:xlink="http://www.w3.org/1999/xlink" x="0px" y="0px"
	 viewBox="0 0 24.2 24.2" style="enable-background:new 0 0 24.2 24.2;" xml:space="preserve">
<style type="text/css">
	.st0{fill:none;stroke:#FFFFFF;stroke-miterlimit:10;}
</style>
<circle class="st0" cx="12.1" cy="12.1" r="4.3"/>
<line class="st0" x1="12.1" y1="8.3" x2="12.1" y2="0.5"/>
<line class="st0" x1="12.1" y1="3.9" x2="9.5" y2="1.4"/>
<line class="st0" x1="12.1" y1="3.9" x2="14.8" y2="1.4"/>
<line class="st0" x1="9.4" y1="9.4" x2="3.9" y2="3.9"/>
<line class="st0" x1="6.3" y1="6.3" x2="2.7" y2="6.4"/>
<line class="st0" x1="6.3" y1="6.3" x2="6.4" y2="2.7"/>
<line class="st0" x1="8.3" y1="12.1" x2="0.5" y2="12.1"/>
<line class="st0" x1="3.9" y1="12.1" x2="1.4" y2="14.8"/>
<line class="st0" x1="3.9" y1="12.1" x2="1.4" y2="9.5"/>
<line class="st0" x1="9.4" y1="14.8" x2="3.9" y2="20.3"/>
<line class="st0" x1="6.3" y1="18" x2="6.4" y2="21.6"/>
<line class="st0" x1="6.3" y1="18" x2="2.7" y2="17.8"/>
<line class="st0" x1="12.1" y1="15.9" x2="12.1" y2="23.7"/>
<line class="st0" x1="12.1" y1="20.4" x2="14.8" y2="22.8"/>
<line class="st0" x1="12.1" y1="20.4" x2="9.5" y2="22.8"/>
<line class="st0" x1="14.8" y1="14.8" x2="20.3" y2="20.3"/>
<line class="st0" x1="18" y1="18" x2="21.6" y2="17.8"/>
<line class="st0" x1="18" y1="18" x2="17.8" y2="21.6"/>
<line class="st0" x1="15.9" y1="12.1" x2="23.7" y2="12.1"/>
<line class="st0" x1="20.4" y1="12.1" x2="22.8" y2="9.5"/>
<line class="st0" x1="20.4" y1="12.1" x2="22.8" y2="14.8"/>
<line class="st0" x1="14.8" y1="9.4" x2="20.3" y2="3.9"/>
<line class="st0" x1="18" y1="6.3" x2="17.8" y2="2.7"/>
<line class="st0" x1="18" y1="6.3" x2="21.6" y2="6.4"/>
</svg>
