<?xml version="1.0" encoding="UTF-8"?>
<svg id="Layer_1" data-name="Layer 1" xmlns="http://www.w3.org/2000/svg" viewBox="0 0 35.71 35.47">
  <defs>
    <style>
      .cls-1 {
        fill: #FFFFFF;
      }

      .cls-2 {
        stroke-dasharray: 0 0 1.1 2.21;
      }

      .cls-2, .cls-3 {
        fill: none;
        stroke: #FFFFFF;
        stroke-linecap: round;
        stroke-miterlimit: 10;
      }
    </style>
  </defs>
  <g>
    <line class="cls-3" x1="7.52" y1="26.99" x2="7.52" y2="27.99"/>
    <line class="cls-2" x1="7.52" y1="30.2" x2="7.52" y2="32.4"/>
    <line class="cls-3" x1="7.52" y1="33.51" x2="7.52" y2="34.51"/>
  </g>
  <g>
    <line class="cls-3" x1="10.2" y1="26.06" x2="10.2" y2="27.06"/>
    <line class="cls-2" x1="10.2" y1="29.26" x2="10.2" y2="31.47"/>
    <line class="cls-3" x1="10.2" y1="32.57" x2="10.2" y2="33.57"/>
  </g>
  <g>
    <line class="cls-3" x1="12.67" y1="27.45" x2="12.67" y2="28.45"/>
    <line class="cls-2" x1="12.67" y1="30.66" x2="12.67" y2="32.87"/>
    <line class="cls-3" x1="12.67" y1="33.97" x2="12.67" y2="34.97"/>
  </g>
  <g>
    <line class="cls-3" x1="15.36" y1="26.52" x2="15.36" y2="27.52"/>
    <line class="cls-2" x1="15.36" y1="29.73" x2="15.36" y2="31.94"/>
    <line class="cls-3" x1="15.36" y1="33.04" x2="15.36" y2="34.04"/>
  </g>
  <g>
    <line class="cls-3" x1="18.36" y1="27.45" x2="18.36" y2="28.45"/>
    <line class="cls-2" x1="18.36" y1="30.66" x2="18.36" y2="32.87"/>
    <line class="cls-3" x1="18.36" y1="33.97" x2="18.36" y2="34.97"/>
  </g>
  <g>
    <line class="cls-3" x1="21.04" y1="26.52" x2="21.04" y2="27.52"/>
    <line class="cls-2" x1="21.04" y1="29.73" x2="21.04" y2="31.94"/>
    <line class="cls-3" x1="21.04" y1="33.04" x2="21.04" y2="34.04"/>
  </g>
  <g>
    <line class="cls-3" x1="23.9" y1="27.45" x2="23.9" y2="28.45"/>
    <line class="cls-2" x1="23.9" y1="30.66" x2="23.9" y2="32.87"/>
    <line class="cls-3" x1="23.9" y1="33.97" x2="23.9" y2="34.97"/>
  </g>
  <g>
    <line class="cls-3" x1="26.59" y1="26.52" x2="26.59" y2="27.52"/>
    <line class="cls-2" x1="26.59" y1="29.73" x2="26.59" y2="31.94"/>
    <line class="cls-3" x1="26.59" y1="33.04" x2="26.59" y2="34.04"/>
  </g>
  <path class="cls-1" d="M22.91,13.22c-.44,0-.86,.04-1.27,.12-.76-3.49-3.85-6.09-7.56-6.09-4.29,0-7.76,3.47-7.76,7.76-3.49,0-6.32,2.82-6.32,6.32s2.83,6.32,6.32,6.32H29.23c2.34,0,4.25-1.91,4.25-4.26s-1.91-4.25-4.25-4.25h-.01c-.2-3.31-2.95-5.92-6.3-5.92h-.01Z"/>
  <path class="cls-1" d="M21.95,0c-1.5,2.25-2.15,5.08-1.58,7.94,.06,.29,.13,.57,.2,.85-1.02-1.08-2.35-1.87-3.84-2.24,.76-2.78,2.63-5.18,5.22-6.55Z"/>
  <path class="cls-1" d="M35.71,15.21c-1.03,1.54-2.46,2.81-4.18,3.64-.3-.07-.61-.1-.93-.1h-.02c-.05-.83-.25-1.61-.58-2.32,.92,.06,1.85,.01,2.79-.18,1.05-.2,2.03-.56,2.92-1.04Z"/>
  <polygon class="cls-1" points="31.85 6.56 32.21 7.29 33.03 7.41 32.44 7.99 32.58 8.8 31.85 8.42 31.12 8.8 31.26 7.99 30.67 7.41 31.49 7.29 31.85 6.56"/>
  <polygon class="cls-1" points="25.56 4.6 25.93 5.34 26.75 5.46 26.16 6.03 26.29 6.85 25.56 6.46 24.84 6.85 24.97 6.03 24.39 5.46 25.2 5.34 25.56 4.6"/>
  <polygon class="cls-1" points="29.36 11.5 29.73 12.24 30.55 12.36 29.96 12.94 30.09 13.75 29.36 13.37 28.64 13.75 28.77 12.94 28.19 12.36 29 12.24 29.36 11.5"/>
</svg>